# xmcd CD database file
#
# Track frame offsets:
#	150
#	21437
#	38914
#	59337
#	75707
#	94005
#	123112
#	141615
#	163722
#
# Disc length: 2432 seconds
#
# Revision: 0
# Processed by: cddbd v1.4PL0 Copyright (c) Steve Scherf et al.
# Submitted via: CDex 1.50
#
DISCID=77097e09
DTITLE=Rosa Font Fuster - Music For Relaxation Vol 3
DYEAR=1900
DGENRE=New Age
TTITLE0=Pelas Suaves Liras
TTITLE1=Entrou enfim a Esposa
TTITLE2=Nosso Leito Florido
TTITLE3=Seguindo tuas Pegadas
TTITLE4=Ali me deu seu Peito
TTITLE5=No Interior da Adega
TTITLE6=Minha Alma se Empregou
TTITLE7=Agora, no meio da Praça
TTITLE8=De Flores e Esmeraldas
EXTD=
EXTT0=
EXTT1=
EXTT2=
EXTT3=
EXTT4=
EXTT5=
EXTT6=
EXTT7=
EXTT8=
PLAYORDER=
